<svg xmlns="http://www.w3.org/2000/svg" width="128" height="24">
	<g fill="none" fill-rule="evenodd">
		<path d="M54.2 16v-5c0-1.8-1.2-3-3-3a3 3 0 00-2.8 1.4A2.9 2.9 0 0045.8 8c-.9 0-1.7.4-2.2 1.1v-1h-1.7V16h1.7v-4.3c0-1.3.7-2 1.9-2 1.1 0 1.7.7 1.7 2V16h1.7v-4.3c0-1.3.7-2 1.9-2 1 0 1.7.7 1.7 2V16h1.7zm25.2-7.8h-2.7V5.8H75v2.4h-1.6v1.5H75v3.5c0 1.8.7 3 2.7 3a4 4 0 002-.7l-.4-1.4c-.5.2-1 .4-1.5.4-.9 0-1.1-.5-1.1-1.3V9.7h2.7V8.2zM93.8 8c-.8 0-1.6.4-2 1.1v-1H90V16h1.7v-4.3c0-1.3.6-2 1.7-2 .3 0 .7 0 1 .2l.5-1.6c-.4-.2-.8-.2-1.2-.2zM72 8.8c-1-.6-2-.9-3.1-.8-2 0-3.3 1-3.3 2.5 0 1.2 1 2 2.7 2.2l.8.2c1 0 1.4.3 1.4.8 0 .6-.6 1-1.8 1-1 0-1.8-.3-2.6-.9l-.8 1.3c1 .7 2.2 1 3.4 1 2.2 0 3.5-1 3.5-2.5 0-1.4-1-2-2.7-2.3l-.8-.1c-.7-.1-1.3-.3-1.3-.8 0-.6.6-1 1.5-1a5 5 0 012.4.7l.7-1.3zm45.3-.8c-.8 0-1.6.4-2 1.1v-1h-1.7V16h1.7v-4.3c0-1.3.5-2 1.6-2 .4 0 .7 0 1 .2l.6-1.6c-.4-.2-.8-.2-1.2-.2zm-21.8 4c0 2.4 1.7 4.1 4.2 4.1 1 0 2-.3 2.8-1l-.8-1.3c-.6.5-1.3.7-2 .7-1.4 0-2.4-1-2.4-2.5 0-1.4 1-2.4 2.3-2.4.8 0 1.5.2 2 .7l.9-1.4a4 4 0 00-2.8-1c-2.5 0-4.2 1.8-4.2 4.1zm15.9 0V8.2h-1.7V9a3 3 0 00-2.5-1.1c-2.2 0-3.9 1.7-3.9 4 0 2.4 1.7 4.1 4 4.1a3 3 0 002.4-1.1v1h1.7v-4zm-6.3 0c0-1.3.9-2.4 2.3-2.4s2.4 1 2.4 2.4c0 1.5-1 2.5-2.4 2.5s-2.3-1-2.3-2.5zM84.7 8c-2.3 0-3.9 1.6-3.9 4 0 2.5 1.7 4.1 4 4.1 1.2 0 2.3-.3 3.2-1l-.8-1.3c-.7.5-1.5.8-2.3.8-1.1 0-2-.5-2.3-2h5.7V12c0-2.4-1.4-4-3.6-4zm0 1.5c1 0 1.7.7 2 1.9h-4.1c.2-1.2.9-2 2-2zM127 12V5h-1.7v4.1A3 3 0 00123 8c-2.2 0-4 1.7-4 4 0 2.4 1.8 4.1 4 4.1a3 3 0 002.4-1.1v1h1.7v-4zm-6.3 0c0-1.3 1-2.4 2.4-2.4s2.3 1 2.3 2.4c0 1.5-.9 2.5-2.3 2.5-1.5 0-2.4-1-2.4-2.5zm-57 0V8.2H62V9A3 3 0 0059.6 8c-2.2 0-4 1.7-4 4 0 2.4 1.8 4.1 4 4.1A3 3 0 0062 15v1h1.7v-4zm-6.3 0c0-1.3 1-2.4 2.4-2.4s2.3 1 2.3 2.4c0 1.5-1 2.5-2.3 2.5-1.5 0-2.4-1-2.4-2.5z" fill="#213548" fill-rule="nonzero"/>
		<circle fill="#213548" cx="12" cy="12" r="11.7"/>
		<path d="M38.1 12a11.7 11.7 0 01-18.9 9.2 11.7 11.7 0 000-18.4A11.7 11.7 0 0138.1 12z" fill="#4D6982" fill-rule="nonzero"/>
	</g>
</svg>
